<?xml version="1.0" standalone="no"?>
<!DOCTYPE svg PUBLIC "-//W3C//DTD SVG 20010904//EN"
 "http://www.w3.org/TR/2001/REC-SVG-20010904/DTD/svg10.dtd">
<svg version="1.0" xmlns="http://www.w3.org/2000/svg"
 width="1280.000000pt" height="640.000000pt" viewBox="0 0 1280.000000 640.000000"
 preserveAspectRatio="xMidYMid meet">
<metadata>
Created by potrace 1.15, written by Peter Selinger 2001-2017
</metadata>
<g transform="translate(0.000000,640.000000) scale(0.100000,-0.100000)"
fill="#000000" stroke="none">
<path d="M6140 6183 c-625 -82 -1142 -610 -1325 -1352 -19 -75 -37 -157 -40
-182 -6 -38 -16 -55 -56 -95 -27 -26 -50 -46 -52 -43 -1 2 -18 38 -37 79 -142
306 -427 544 -747 626 -431 110 -855 -19 -1179 -359 -250 -261 -410 -628 -455
-1039 -14 -130 -6 -435 16 -543 23 -122 27 -159 16 -175 -9 -12 -15 -11 -43
10 -187 138 -413 238 -628 276 -126 23 -354 23 -476 1 -336 -62 -627 -227
-833 -473 -309 -370 -384 -841 -202 -1263 138 -321 431 -569 777 -656 l97 -25
872 0 c479 0 1054 -3 1276 -7 l404 -6 35 -76 c78 -170 234 -355 385 -458 78
-52 199 -113 300 -149 l80 -29 630 -3 c347 -1 1775 -7 3175 -13 1400 -5 2595
-12 2655 -15 411 -22 794 210 976 591 26 55 57 136 68 179 12 44 23 81 25 84
3 2 38 15 78 29 344 115 633 389 773 734 203 500 72 1077 -342 1509 -59 62
-144 141 -188 175 -506 395 -1167 507 -1771 299 -39 -13 -73 -24 -75 -24 -3 0
1 46 9 103 19 142 10 397 -18 542 -60 302 -204 599 -398 819 -395 446 -986
642 -1540 511 -282 -67 -520 -196 -723 -392 l-95 -92 -18 52 c-29 81 -110 231
-173 318 -111 155 -306 320 -478 406 -75 38 -217 86 -315 108 -74 17 -362 29
-440 18z"/>
</g>
</svg>
